<svg width="40" height="40" viewBox="0 0 40 40" fill="none" xmlns="http://www.w3.org/2000/svg">
<rect width="40" height="40" rx="20" fill="#5D6DFF"/>
<path d="M18 19H15.101L15.102 18.991C15.2326 18.3516 15.4881 17.7444 15.854 17.204C16.3985 16.4018 17.1621 15.7732 18.054 15.393C18.356 15.265 18.671 15.167 18.992 15.102C19.6579 14.967 20.3441 14.967 21.01 15.102C21.967 15.2981 22.8451 15.7714 23.535 16.463L24.951 15.051C24.3128 14.4126 23.5578 13.903 22.727 13.55C22.3033 13.3706 21.8628 13.234 21.412 13.142C20.4818 12.953 19.5232 12.953 18.593 13.142C18.1419 13.2343 17.701 13.3713 17.277 13.551C16.0275 14.0811 14.9579 14.9611 14.197 16.085C13.6849 16.8429 13.3268 17.694 13.143 18.59C13.115 18.725 13.1 18.863 13.08 19H10L14 23L18 19ZM22 21H24.899L24.898 21.008C24.6367 22.2898 23.8812 23.4171 22.795 24.146C22.2548 24.5122 21.6475 24.7678 21.008 24.898C20.3424 25.033 19.6566 25.033 18.991 24.898C18.3516 24.7674 17.7443 24.5119 17.204 24.146C16.9386 23.9665 16.6908 23.7623 16.464 23.536L15.05 24.95C15.6885 25.5882 16.4439 26.0975 17.275 26.45C17.699 26.63 18.142 26.767 18.59 26.858C19.5198 27.0471 20.4782 27.0471 21.408 26.858C23.2005 26.486 24.7773 25.4294 25.803 23.913C26.3146 23.1557 26.6724 22.3053 26.856 21.41C26.883 21.275 26.899 21.137 26.919 21H30L26 17L22 21Z" fill="white"/>
</svg>
